<svg width="37" height="37" viewBox="0 0 37 37" fill="none" xmlns="http://www.w3.org/2000/svg">
<mask id="mask0_128_237" style="mask-type:luminance" maskUnits="userSpaceOnUse" x="2" y="2" width="33" height="33">
<path d="M7.59879 25.25C4.80838 26.0871 3.08325 27.2434 3.08325 28.5206C3.08325 31.0752 9.98529 33.1456 18.4999 33.1456C27.0145 33.1456 33.9166 31.0752 33.9166 28.5206C33.9166 27.2434 32.1907 26.0871 29.401 25.25" stroke="white" stroke-width="2" stroke-linecap="round" stroke-linejoin="round"/>
<path d="M18.4998 26.9788C18.4998 26.9788 28.5207 20.4298 28.5207 12.8587C28.5207 7.4598 24.0344 3.08301 18.4998 3.08301C12.9653 3.08301 8.479 7.4598 8.479 12.8587C8.479 20.4298 18.4998 26.9788 18.4998 26.9788Z" fill="white" stroke="white" stroke-width="2" stroke-linejoin="round"/>
<path d="M18.4999 16.9583C19.5221 16.9583 20.5024 16.5523 21.2252 15.8295C21.948 15.1067 22.3541 14.1264 22.3541 13.1042C22.3541 12.082 21.948 11.1017 21.2252 10.3789C20.5024 9.65606 19.5221 9.25 18.4999 9.25C17.4777 9.25 16.4974 9.65606 15.7746 10.3789C15.0518 11.1017 14.6458 12.082 14.6458 13.1042C14.6458 14.1264 15.0518 15.1067 15.7746 15.8295C16.4974 16.5523 17.4777 16.9583 18.4999 16.9583Z" fill="black" stroke="black" stroke-width="2" stroke-linejoin="round"/>
</mask>
<g mask="url(#mask0_128_237)">
<path d="M0 0H37V37H0V0Z" fill="#A9B37A"/>
</g>
</svg>
